<svg width="823" height="164" viewBox="0 0 823 164" fill="none" xmlns="http://www.w3.org/2000/svg">
<path d="M90.4601 148.678C93.1919 148.01 113.666 143.992 110.593 112.284C108.074 86.2982 96.3647 82.5921 80.2729 81.3141C60.4533 79.7521 38.6276 96.309 32.7088 110.835C20.6292 140.485 42.3411 157.127 59.2297 156.672C69.7442 156.388 70.043 153.69 90.4601 148.678Z" fill="#2F2B3B"/>
<path d="M187.039 148.678C184.308 148.01 163.834 143.992 166.907 112.284C169.425 86.2981 181.135 82.5919 197.227 81.314C217.046 79.752 238.872 96.3089 244.791 110.835C256.87 140.484 235.158 157.127 218.27 156.672C207.755 156.388 207.457 153.69 187.039 148.678Z" fill="#2F2B3B"/>
<path d="M121.648 147.485C122.046 157.311 136.459 162.991 139.561 162.934C142.662 162.878 157.146 155.281 155.766 146.548C154.884 140.939 144.811 139.562 140.158 139.647C134.154 139.775 121.42 141.777 121.648 147.485Z" fill="#2F2B3B"/>
<path d="M177.796 28.3024C177.796 28.3024 219.773 34.7346 250.958 83.9347C250.958 83.9347 299.393 44.6084 255.192 11.2629C214.377 -19.5154 177.796 28.3024 177.796 28.3024Z" fill="#2F2B3B"/>
<path d="M95.7961 28.3024C95.7961 28.3024 54.2564 34.7346 23.3963 83.9347C23.3963 83.9347 -24.5341 44.6084 19.2068 11.2629C59.5962 -19.5154 95.7961 28.3024 95.7961 28.3024Z" fill="#2F2B3B"/>
<path d="M326.809 15.314C326.809 5.56888 332.015 0.585327 341.76 0.585327H398.133C430.749 0.585327 452.262 25.2564 452.262 58.7845C452.262 92.5346 430.749 117.65 398.133 117.65H374.572V148.661C374.572 158.16 369.589 163.39 359.844 163.39H341.735C331.99 163.39 326.784 158.184 326.784 148.661V15.314H326.809ZM387.944 76.8931C399.268 76.8931 403.783 68.7516 403.783 58.7845C403.783 48.8173 399.244 41.342 388.832 41.342H374.572V76.8931H387.944Z" fill="#2F2B3B"/>
<path d="M487.566 12.6002C490.28 4.45877 495.486 0.610107 504.318 0.610107H528.989C537.599 0.610107 543.027 4.45877 545.741 12.6002L589.902 146.416C593.529 156.606 588.545 163.39 577.912 163.39H559.581C550.749 163.39 545.543 159.319 542.83 150.931L539.425 135.092H493.463L490.058 150.931C487.788 159.319 482.361 163.39 473.75 163.39H455.42C444.787 163.39 439.803 156.606 443.43 146.416L487.566 12.6002ZM528.57 97.2962L523.586 74.6481C520.65 63.5461 516.802 44.5247 516.802 44.5247H516.357C516.357 44.5247 512.731 63.5461 509.795 74.6481L504.367 97.2962H528.57Z" fill="#2F2B3B"/>
<path d="M588.126 20.2729H572.805C568.216 20.2729 565.7 17.7564 565.7 13.1676V7.69062C565.7 2.97844 568.216 0.585327 572.805 0.585327H626.514C631.103 0.585327 633.619 3.00311 633.619 7.69062V13.1676C633.619 17.7564 631.103 20.2729 626.514 20.2729H611.193V72.1316C611.193 76.7204 608.677 79.2369 604.088 79.2369H595.231C590.642 79.2369 588.126 76.7204 588.126 72.1316V20.2729Z" fill="#2F2B3B"/>
<path d="M637.246 7.71534C637.246 3.00316 639.762 0.610107 644.475 0.610107H653.233C657.945 0.610107 660.338 3.02783 660.338 7.71534V30.5855H683.307V7.71534C683.307 3.00316 685.823 0.610107 690.412 0.610107H699.269C703.858 0.610107 706.374 3.02783 706.374 7.71534V72.1317C706.374 76.7205 703.858 79.237 699.269 79.237H690.412C685.823 79.237 683.307 76.7205 683.307 72.1317V50.1497H660.338V72.1317C660.338 76.7205 657.92 79.237 653.233 79.237H644.475C639.762 79.237 637.246 76.7205 637.246 72.1317V7.71534Z" fill="#2F2B3B"/>
<path d="M604.507 91.8687C604.507 87.1565 607.024 84.7634 611.736 84.7634H622.246C626.292 84.7634 628.907 86.1944 630.782 89.5743L643.685 114.838C646.867 120.537 650.346 129.27 650.346 129.27H650.568C650.568 129.27 649.581 120.093 649.581 114.838V91.8687C649.581 87.1565 651.999 84.7634 656.687 84.7634H665.445C670.157 84.7634 672.673 87.1812 672.673 91.8687V156.31C672.673 160.899 670.157 163.415 665.445 163.415H654.935C650.988 163.415 648.372 161.984 646.522 158.604L633.496 133.44C630.313 127.864 626.835 119.106 626.835 119.106H626.612C626.612 119.106 627.599 128.185 627.599 133.44V156.31C627.599 160.899 625.182 163.415 620.494 163.415H611.736C607.024 163.415 604.507 160.899 604.507 156.31V91.8687Z" fill="#2F2B3B"/>
<path d="M681.728 91.8684C681.728 87.1562 684.244 84.7631 688.957 84.7631H710.519C735.684 84.7631 751.547 99.1957 751.547 123.916C751.547 148.538 735.684 163.415 710.519 163.415H688.957C684.244 163.415 681.728 160.898 681.728 156.309V91.8684ZM709.73 143.702C721.103 143.702 727.666 136.918 727.666 123.891C727.666 110.865 720.659 104.426 709.73 104.426H704.796V143.702H709.73Z" fill="#2F2B3B"/>
<path d="M772.197 90.5364C773.504 86.589 776.021 84.7386 780.289 84.7386H792.205C796.35 84.7386 798.99 86.589 800.297 90.5364L821.638 155.199C823.389 160.134 820.972 163.415 815.84 163.415H806.983C802.715 163.415 800.198 161.441 798.891 157.395L797.238 149.747H775.034L773.381 157.395C772.295 161.441 769.656 163.415 765.511 163.415H756.654C751.522 163.415 749.105 160.134 750.856 155.199L772.197 90.5364ZM792.008 131.466L789.59 120.536C788.159 115.183 786.309 105.98 786.309 105.98H786.087C786.087 105.98 784.335 115.158 782.904 120.536L780.289 131.466H792.008Z" fill="#2F2B3B"/>
</svg>
