<svg width="330" height="415" viewBox="0 0 330 415" fill="none" xmlns="http://www.w3.org/2000/svg">
<path d="M145.773 250.29C145.773 250.29 167.362 257.177 160.857 276.335C160.857 276.335 158.688 295.061 164.109 304.51C168.934 312.925 174.368 323.027 168.12 331.966C160.301 343.126 134.281 358.219 100.116 360.075C64.7589 361.996 50.5699 346.994 53.9443 336.422C57.3188 325.85 58.9315 318.466 55.7468 311.592C52.562 304.719 40.1754 289.926 55.4893 278.086C70.776 266.246 145.773 250.29 145.773 250.29Z" fill="#52BF2E"/>
<path d="M145.773 250.29C145.773 250.29 167.362 257.177 160.857 276.335C160.857 276.335 158.688 295.061 164.109 304.51C168.934 312.925 174.368 323.027 168.12 331.966C160.301 343.126 134.281 358.219 100.116 360.075C64.7589 361.996 50.5699 346.994 53.9443 336.422C57.3188 325.85 58.9315 318.466 55.7468 311.592C52.562 304.719 40.1754 289.926 55.4893 278.086C70.776 266.246 145.773 250.29 145.773 250.29Z" fill="#52BF2E"/>
<g opacity="0.5">
<path d="M78.7857 350.144C70.9661 349.53 61.0324 343.623 61.9269 337.86C63.5531 327.301 66.25 321.237 61.4526 310.744C56.0724 298.956 57.78 293.899 60.4768 295.924C63.1601 297.95 67.1715 301.243 78.2029 305.451C89.0039 309.568 76.3598 314.35 79.2329 329.758C81.4825 341.793 86.6052 350.758 78.7857 350.144Z" fill="white"/>
</g>
<path d="M140.556 258.209C140.556 258.209 158.973 264.09 153.417 280.425C153.417 280.425 151.56 296.394 156.181 304.457C160.301 311.632 164.936 320.257 159.596 327.875C152.929 337.402 130.73 350.274 101.58 351.855C71.4131 353.489 123.548 341.558 115.227 318.022C109.034 300.524 50.448 291.99 63.5122 281.902C76.59 271.813 140.556 258.209 140.556 258.209Z" fill="#469B19"/>
<path d="M93.9368 362.571C68.486 362.571 58.2135 353.502 54.8526 349.372C51.3426 345.047 50.1907 340.212 51.6137 335.729C55.0288 325 56.262 318.453 53.5245 312.52C53.0773 311.553 52.3997 310.364 51.6272 309.005C47.3583 301.491 39.4168 287.495 53.9582 276.256C69.5295 264.221 142.155 248.67 145.245 248.016C145.665 247.925 146.112 247.951 146.519 248.082C146.763 248.16 152.468 250.016 157.388 254.433C162.049 258.615 166.82 265.893 163.215 276.818C162.998 278.922 161.521 295.231 166.196 303.386C170.641 311.148 177.363 322.87 170.099 333.272C161.169 346.04 133.644 360.598 100.225 362.401C98.043 362.519 95.9425 362.571 93.9368 362.571ZM145.611 252.708C138.076 254.341 70.9254 269.121 56.9803 279.889C46.4774 288.005 50.4618 297.244 55.869 306.77C56.6957 308.221 57.414 309.489 57.9425 310.625C61.6286 318.597 59.4603 326.974 56.2349 337.088C55.2863 340.068 56.1401 343.413 58.6472 346.497C65.22 354.586 80.6693 358.781 99.9539 357.736C133.78 355.893 159 340.787 166.088 330.646C171.292 323.223 167.294 314.912 161.968 305.62C156.249 295.636 158.336 276.858 158.431 276.06C158.445 275.904 158.485 275.747 158.539 275.59C163.716 260.405 148.877 253.936 145.611 252.708Z" fill="#2F2B3B"/>
<path d="M132.465 199.887C132.465 199.887 141.152 224.154 148.484 228.624C155.653 232.988 162.51 240.45 147.901 258.027C134.999 273.539 100.943 293.167 72.8633 290.017C48.8083 287.312 43.8483 278.426 48.5509 264.561C48.5509 264.561 51.0986 240.594 42.344 228.101C32.1393 212.106 38.4817 206.147 45.0544 199.351C56.8854 187.106 106.567 160.722 126.665 166.773C141.532 171.255 129.199 190.948 132.465 199.887Z" fill="#52BF2E"/>
<path d="M128.291 203.141C128.291 203.141 135.975 224.599 142.453 228.558C148.796 232.413 154.853 239.013 141.938 254.551C133.265 264.979 113.791 277.511 94.0452 281.693C87.8112 283.013 103.748 261.816 98.5851 242.071C95.1836 229.029 72.0366 227.761 60.5038 222.782C51.573 218.927 52.2235 213.073 55.083 212.733C118.94 205.01 113.005 170.458 123.494 170.732C134.186 171.007 125.418 195.235 128.291 203.141Z" fill="#469B19"/>
<path d="M79.0023 292.684C76.834 292.684 74.6928 292.566 72.5787 292.331C59.1757 290.828 50.8005 287.3 46.9788 281.537C44.0109 277.08 43.7534 271.37 46.1657 264.104C46.3961 261.634 48.0494 240.425 40.3383 229.421C40.3248 229.395 40.2977 229.369 40.2841 229.343C29.3476 212.198 36.2049 205.102 42.8454 198.241L43.2791 197.783C55.5437 185.081 106.228 158.2 127.37 164.564C138.957 168.054 136.978 178.979 135.379 187.76C134.593 192.06 133.793 196.503 134.742 199.116V199.129C137.994 208.212 144.947 223.724 149.771 226.664C153.132 228.716 157.713 232.113 158.729 237.955C159.773 243.953 156.845 250.984 149.785 259.478C137.805 273.879 106.879 292.684 79.0023 292.684ZM44.3633 226.847C53.4703 239.889 51.0444 263.79 50.936 264.796C50.9225 264.966 50.8818 265.123 50.8276 265.28C48.8083 271.252 48.8761 275.747 51.0309 279.015C54.0259 283.523 61.2491 286.372 73.1207 287.705C100.781 290.815 133.78 271.265 146.004 256.564C152.075 249.272 154.745 243.26 153.959 238.713C153.417 235.615 151.33 233.106 147.183 230.584C139.363 225.828 131.096 203.233 130.175 200.645C128.806 196.882 129.687 192.047 130.609 186.95C132.384 177.188 132.953 171.112 125.92 168.995C117.775 166.538 102.407 169.935 83.7591 178.312C68.2962 185.251 52.7656 194.765 46.8026 200.946L46.369 201.403C39.986 207.99 35.3918 212.746 44.3633 226.847Z" fill="#2F2B3B"/>
<path d="M81.2925 304.732C81.2925 304.732 89.8574 319.029 79.3817 321.25C70.356 323.158 47.0871 309.241 37.6685 296.434C31.0822 287.469 31.4887 281.105 38.1699 282.791C45.6235 284.673 54.2426 294.63 75.9801 300.407" fill="#52BF2E"/>
<path d="M81.2925 304.732C81.2925 304.732 89.8574 319.029 79.3817 321.25C70.356 323.158 47.0871 309.241 37.6685 296.434C31.0822 287.469 31.4887 281.105 38.1699 282.791C45.6235 284.673 54.2426 294.63 75.9801 300.407L81.2925 304.732Z" fill="#52BF2E"/>
<path d="M81.2925 304.732C81.2925 304.732 89.8574 319.029 79.3817 321.25C70.356 323.158 47.0871 309.241 37.6685 296.434C31.0822 287.469 31.4887 281.105 38.1699 282.791C45.6235 284.673 54.2426 294.63 75.9801 300.407L81.2925 304.732Z" fill="#52BF2E"/>
<path d="M80.8048 316.14C80.6422 316.754 80.3169 317.434 78.5958 317.8C75.9531 318.362 69.3668 316.584 60.5851 311.357C79.7342 309.854 41.9646 296.407 37.2349 286.201C39.4574 286.763 42.1814 288.462 45.6507 290.605C51.9389 294.513 60.5174 299.844 74.2185 303.595C74.232 303.595 82.8512 311.174 80.8048 316.14Z" fill="#469B19"/>
<path d="M82.0922 304.288C84.9381 308.339 87.635 313.854 85.5886 318.78C83.8404 322.779 78.5144 323.785 74.5979 322.975C61.8183 320.401 47.6564 310.469 38.9695 301.23C37.0858 299.139 35.3511 296.878 33.8875 294.447C32.3697 291.808 31.0415 289.233 30.8925 286.019C30.7299 282.516 33.4538 280.138 37.0722 280.621C40.921 281.118 44.2819 283.379 47.2227 285.156C52.9959 288.867 58.6878 292.213 64.9353 294.879C68.635 296.564 72.4431 297.976 76.2106 299.544C77.2134 299.949 76.7933 301.413 75.7227 301.256C70.1528 300.433 64.7455 298.734 59.6635 296.395C54.5544 294.095 49.7434 291.18 45.1221 288.332C42.6692 286.907 37.655 283.64 35.2833 284.699C34.145 286.58 36.354 290.592 37.4381 292.448C41.5444 299.087 47.6022 304.34 54.0259 308.979C58.7149 312.468 80.4795 326.085 82.7562 315.905C83.2441 312.325 81.794 308.613 80.4795 305.176C80.0594 304.196 81.4552 303.438 82.0922 304.288Z" fill="#2F2B3B"/>
<path d="M35.2967 293.82C35.9066 295.506 31.6919 304.327 19.4273 304.51C9.01928 304.666 1.99931 300.498 2.21614 296.002C2.44653 291.35 13.3153 287.351 19.9829 287.573C28.5613 287.874 34.6869 292.134 35.2967 293.82Z" fill="#52BF2E"/>
<g opacity="0.5">
<path d="M9.62916 296.682C9.75113 299.322 14.8738 301.034 11.4316 300.655C8.16554 300.302 5.943 298.119 6.15983 296.264C6.40377 294.33 10.1306 292.108 12.0008 292.278C13.9523 292.461 9.50719 294.173 9.62916 296.682Z" fill="white"/>
</g>
<path d="M30.1607 294.513C30.0252 297.649 22.5174 303.033 15.1857 301.138C20.349 299.766 23.0324 296.486 22.8833 294.748C22.802 293.846 20.7014 292.082 15.1315 291.207C19.6443 289.273 30.2556 292.187 30.1607 294.513Z" fill="#469B19"/>
<path d="M18.8447 306.653C11.7976 306.653 5.68565 304.732 2.4196 301.491C0.739143 299.818 -0.0875311 297.897 0.00733337 295.911C0.346135 289.129 13.3697 285.234 20.0644 285.457C29.0494 285.757 36.3269 290.2 37.3839 293.128C38.1699 295.31 36.1778 298.303 35.5544 299.165C33.9552 301.36 29.1985 306.496 19.4681 306.653C19.2513 306.653 19.048 306.653 18.8447 306.653ZM19.3597 289.704C12.7598 289.704 4.54727 293.559 4.4253 296.107C4.37109 297.087 5.03515 297.95 5.59078 298.512C7.54228 300.459 12.1906 302.484 19.3868 302.38C28.9545 302.236 32.7491 296.199 33.1015 294.421C32.0444 293.154 26.9759 289.939 19.9018 289.704C19.7391 289.704 19.5494 289.704 19.3597 289.704Z" fill="#2F2B3B"/>
<path d="M46.7348 269.187C48.1985 275.774 47.4531 283.275 42.8996 283.353C38.3597 283.431 31.6108 277.276 30.7976 266.809C30.0929 257.805 34.5651 255.387 36.3269 255.231C39.8911 254.917 44.4039 258.694 46.7348 269.187Z" fill="#52BF2E"/>
<path d="M45.0815 269.187C46.2199 274.297 45.6372 280.138 42.1001 280.19C38.5765 280.243 33.3319 275.473 32.695 267.344C32.1393 260.353 35.6222 258.471 36.9909 258.354C39.7556 258.105 43.2656 261.033 45.0815 269.187Z" fill="#52BF2E"/>
<g opacity="0.5">
<path d="M34.5786 261.516C34.9581 262.039 34.9445 264.391 35.08 266.077C35.6357 273.146 38.7798 277.185 38.4816 277.681C38.1835 278.178 33.6842 273.486 33.0879 267.475C32.7491 263.92 34.2127 260.993 34.5786 261.516Z" fill="white"/>
</g>
<path d="M43.3739 269.632C44.0515 272.624 44.0786 278.596 42.7776 279.838C42.1813 280.413 40.9345 279.642 40.1892 278.649C42.8996 273.513 39.2676 259.556 35.5679 259.831C37.5736 256.76 41.2869 260.889 43.3739 269.632Z" fill="#469B19"/>
<path d="M42.8047 285.496C36.6114 285.496 29.456 278.112 28.5886 266.978C27.7484 256.236 33.7384 253.335 36.1236 253.113C38.2648 252.917 45.5152 253.479 48.9032 268.742C49.9738 273.604 50.15 279.981 47.3853 283.326C46.247 284.712 44.702 285.456 42.9403 285.483C42.8996 285.496 42.8589 285.496 42.8047 285.496ZM36.747 257.347C36.6792 257.347 36.5979 257.347 36.5301 257.36C35.6357 257.439 32.4103 259.255 32.993 266.652C33.752 276.27 39.7555 281.222 42.8183 281.222C42.8318 281.222 42.8454 281.222 42.859 281.222C43.1842 281.222 43.523 281.144 43.916 280.674C45.3254 278.962 45.61 274.309 44.5665 269.631C42.6828 261.124 39.2406 257.347 36.747 257.347Z" fill="#2F2B3B"/>
<g opacity="0.5">
<path d="M72.8089 281.314C68.1334 283.509 50.5971 279.994 53.7683 270.219C57.0072 260.248 55.8553 248.814 54.229 240.528C52.8467 233.498 47.6834 225.265 49.0657 223.71C50.448 222.155 55.2996 230.035 67.7269 234.282C79.8831 238.438 69.5428 247.847 69.1227 258.784C68.6213 271.369 79.8966 277.981 72.8089 281.314Z" fill="white"/>
</g>
<path d="M47.304 207.898C47.304 207.898 92.5137 208.303 113.425 173.071C113.425 173.071 94.0451 175.593 76.1021 185.721C68.1877 190.19 75.3432 192.817 73.5272 197.835C70.7762 205.428 47.304 207.898 47.304 207.898Z" fill="#469B19"/>
<path d="M47.304 207.898C67.8489 204.408 88.177 197.43 103.559 183.5C107.136 180.272 110.294 176.783 113.425 173.084C112.191 176.064 110.687 178.952 108.83 181.631C95.9288 200.566 70.2747 210.328 47.304 207.898Z" fill="#2F2B3B"/>
<path d="M207.218 213.281L208.546 230.505L210.742 259.007L210.823 260.065C254.081 258.628 290.726 246.5 312.287 223.827C315.716 220.22 318.765 216.339 321.408 212.197C322.614 210.302 323.63 208.381 324.457 206.473C335.339 181.395 314.334 157.259 286.85 180.167C284.235 182.349 281.497 184.492 278.651 186.557C267.972 194.359 255.762 201.246 242.02 206.107C231.327 209.897 219.727 212.458 207.218 213.281Z" fill="#2F2B3B"/>
<path d="M242.237 206.042C232.845 215.503 220.987 221.632 208.153 225.396L207.218 213.281C219.74 212.458 231.327 209.897 242.006 206.12C242.088 206.094 242.155 206.068 242.237 206.042Z" fill="#777782"/>
<g opacity="0.25">
<path d="M242.237 206.042C232.845 215.503 220.987 221.632 208.153 225.396L207.218 213.281C219.74 212.458 231.327 209.897 242.006 206.12C242.088 206.094 242.155 206.068 242.237 206.042Z" fill="#2F2B3B"/>
</g>
<path d="M156.466 223.318L152.847 229.773C141.315 228.806 130.703 226.937 122.152 224.873C128.291 221.58 135.785 218.692 144.892 216.705L156.466 223.318Z" fill="#5E5E68"/>
<path d="M225.08 218.613C195.672 234.164 155.639 231.733 129.186 226.428C127.424 214.627 127.952 188.805 166.359 188.805C201.499 188.805 218.263 207.584 225.08 218.613Z" fill="#5E5E68"/>
<g opacity="0.25">
<path d="M210.742 259.006L210.823 260.065C254.082 258.627 290.726 246.5 312.288 223.827C315.716 220.22 318.766 216.339 321.408 212.196C322.614 210.301 323.631 208.38 324.458 206.473C324.186 206.838 283.341 253.217 230.799 238.228C221.855 247.663 215.499 253.086 210.742 259.006Z" fill="#2F2B3B"/>
</g>
<path d="M309.022 207.393C312.986 203.571 312.986 197.374 309.022 193.551C305.058 189.729 298.631 189.729 294.667 193.551C290.703 197.374 290.703 203.571 294.667 207.393C298.631 211.216 305.058 211.216 309.022 207.393Z" fill="white"/>
<path d="M298.342 188.713C300.476 188.713 302.205 187.046 302.205 184.989C302.205 182.932 300.476 181.265 298.342 181.265C296.209 181.265 294.48 182.932 294.48 184.989C294.48 187.046 296.209 188.713 298.342 188.713Z" fill="white"/>
<path d="M317.641 199.861C319.774 199.861 321.503 198.193 321.503 196.137C321.503 194.08 319.774 192.412 317.641 192.412C315.507 192.412 313.778 194.08 313.778 196.137C313.778 198.193 315.507 199.861 317.641 199.861Z" fill="white"/>
<path d="M312.795 190.285C315.094 188.943 315.829 186.058 314.437 183.841C313.045 181.625 310.053 180.916 307.755 182.259C305.457 183.601 304.722 186.485 306.113 188.702C307.505 190.918 310.497 191.627 312.795 190.285Z" fill="white"/>
<path d="M210.823 262.391C209.522 262.391 208.452 261.398 208.411 260.143C208.37 258.863 209.414 257.778 210.742 257.739C262.687 256.014 301.256 239.404 319.348 210.981C328.36 196.829 325.447 182.82 318.128 176.821C310.688 170.719 299.576 172.627 288.409 181.931C263.92 202.343 236.653 213.673 207.381 215.608C206.053 215.699 204.901 214.732 204.806 213.438C204.711 212.144 205.714 211.047 207.056 210.955C235.271 209.087 261.576 198.136 285.251 178.403C298.37 167.465 311.827 165.557 321.245 173.267C326.151 177.279 329.146 183.46 329.688 190.661C330.257 198.227 328.103 206.094 323.454 213.399C313.832 228.519 298.763 240.476 278.678 248.931C259.529 256.994 236.721 261.516 210.904 262.365C210.877 262.391 210.85 262.391 210.823 262.391Z" fill="#2F2B3B"/>
<path d="M178.718 295.832C179.138 311.292 180.399 320.57 180.873 330.868C182.174 348.562 177.783 388.158 180.372 401.396C181.551 407.421 188.489 411.655 216.041 411.655C229.579 411.655 236.504 412.19 238.876 402.964C241.627 392.249 229.999 387.492 229.999 387.492C229.999 387.492 244.202 345.23 247.129 311.37" fill="#2F2B3B"/>
<path d="M245.245 326.307C240.407 356.481 229.999 387.492 229.999 387.492C229.999 387.492 238.578 390.994 239.255 398.77C239.364 400.05 239.269 401.448 238.876 402.964C236.504 412.19 229.579 411.655 216.041 411.655C188.489 411.655 181.551 407.421 180.372 401.396C177.783 388.158 182.174 348.562 180.873 330.868C180.399 320.623 179.152 311.37 178.718 296.041C178.718 295.976 178.718 295.911 178.718 295.845L247.116 311.383C246.709 316.232 246.059 321.25 245.245 326.307Z" fill="#2F2B3B"/>
<path d="M245.245 326.307C240.407 356.481 229.999 387.492 229.999 387.492C229.999 387.492 238.578 390.994 239.255 398.77C239.364 400.05 239.269 401.448 238.876 402.964C236.504 412.19 229.579 411.655 216.041 411.655C188.489 411.655 181.551 407.421 180.372 401.396C177.783 388.158 182.174 348.562 180.873 330.868C180.399 320.623 179.152 311.37 178.718 296.041C178.718 295.976 178.718 295.911 178.718 295.845L247.116 311.383C246.709 316.232 246.059 321.25 245.245 326.307Z" fill="#2F2B3B"/>
<path d="M138.374 329.208C138.374 329.208 132.465 351.175 111.961 347.908C93.6792 344.994 87.9874 324.491 97.8126 314.193C109.332 302.131 130.853 302.85 138.374 329.208Z" fill="#777782"/>
<path d="M138.374 329.209C138.374 329.209 132.465 351.176 111.961 347.909C101.431 346.236 95.075 338.709 93.4624 330.659C92.2833 324.752 93.6521 318.545 97.8261 314.193C105.28 306.392 116.921 303.935 126.258 310.338C131.327 313.801 135.718 319.917 138.374 329.209Z" fill="#2F2B3B"/>
<g opacity="0.25">
<path d="M138.374 329.208C138.374 329.208 132.465 351.175 111.961 347.908C101.431 346.236 95.0749 338.708 93.4622 330.658C96.6605 335.637 102.583 342.041 110.795 339.074C122.775 334.749 108.126 319.89 126.245 310.338C131.327 313.801 135.718 319.916 138.374 329.208Z" fill="#2F2B3B"/>
</g>
<path d="M116.04 350.365C114.631 350.365 113.153 350.248 111.609 349.999C102.434 348.536 95.1834 342.681 92.202 334.331C89.4103 326.503 90.9416 318.231 96.1998 312.729C102.515 306.117 111.541 303.203 119.753 305.124C129.457 307.398 136.829 315.748 140.515 328.633C140.623 328.999 140.623 329.378 140.529 329.731C140.461 329.966 134.728 350.365 116.04 350.365ZM114.658 308.809C109.196 308.809 103.626 311.24 99.4388 315.63C95.2919 319.982 94.1128 326.621 96.376 332.959C98.8154 339.806 104.778 344.602 112.313 345.805C129.145 348.484 135.054 332.436 136.07 329.208C132.79 318.205 126.638 311.135 118.696 309.279C117.382 308.966 116.026 308.809 114.658 308.809Z" fill="#2F2B3B"/>
<g opacity="0.25">
<path d="M191.512 359.16C188.367 364.387 181.117 399.24 197.515 402.233C219.849 406.31 234.295 402.664 239.255 398.756C239.364 400.037 239.269 401.435 238.876 402.951C236.504 412.177 229.579 411.642 216.041 411.642C188.489 411.642 181.551 407.408 180.372 401.383C177.783 388.145 182.174 348.549 180.873 330.855C180.399 320.609 179.152 311.357 178.718 296.028V295.832L247.116 311.37C246.696 316.219 246.045 321.25 245.232 326.307C230.799 351.071 197.786 348.719 191.512 359.16Z" fill="#2F2B3B"/>
</g>
<path d="M181.131 295.78C181.361 307.554 182.689 319.368 183.299 331.155C183.936 343.073 183.041 355.004 182.594 366.87C182.255 378.082 181.225 389.269 182.635 400.376C182.865 402.271 183.746 403.787 185.521 404.924C193.815 410.125 215.892 409.393 226.205 409.21C231.598 408.936 235.325 407.825 236.531 402.363C238.144 396.822 234.092 391.882 229.037 389.634C227.885 389.151 227.302 387.91 227.682 386.773C229.688 380.644 231.558 374.397 233.306 368.151C236.193 358.01 238.578 347.751 240.719 337.454C241.884 332.07 243.213 326.241 244.202 320.831C244.852 317.643 245.327 314.428 245.923 311.226C246.153 309.919 248.322 309.945 248.322 311.474C248.2 317.917 247.576 324.66 246.682 331.077C245.842 337.584 244.446 343.988 242.874 350.352C239.825 363.119 236.355 375.704 232.276 388.21L230.921 385.348C231.287 385.505 231.504 385.61 231.775 385.74C237.846 388.667 242.711 394.953 241.532 401.762C241.004 405.238 239.567 408.818 236.531 411.027C231.734 414.333 225.649 413.85 220.201 413.98C214.17 413.954 207.611 413.993 201.608 413.471C193.395 412.634 180.074 411.602 178 401.905C177.295 398.129 177.187 394.248 177.119 390.432C177.024 374.567 178.379 358.833 178.651 343.06C178.989 327.248 176.536 311.697 176.292 295.897C176.306 292.865 180.941 292.643 181.131 295.78Z" fill="#2F2B3B"/>
<path d="M204.007 386.616C210.362 384.591 217.206 383.78 223.901 384.264C226.191 384.395 228.468 384.813 230.758 385.296C233.862 386.054 232.872 390.445 229.715 389.87C227.601 389.125 225.554 388.211 223.305 387.714C222.424 387.453 221.109 387.217 220.201 387.021C214.875 386.08 209.4 385.884 204.007 386.616Z" fill="#2F2B3B"/>
<path d="M125.269 325.549C125.269 325.549 148.05 345.831 178.718 345.831C191.864 345.831 202.597 344.171 210.579 342.263C229.579 337.729 244.432 323.145 248.173 304.627C248.267 304.157 248.362 303.673 248.444 303.203C249.772 295.689 249.745 287.547 248.633 278.896C247.36 268.977 242.996 255.661 236.843 242.07C234.472 236.843 231.842 231.59 229.024 226.454C229.024 226.454 207.205 186.596 166.345 190.634C142.954 192.947 130.432 232.178 130.432 232.178C128.332 236.765 126.516 242.332 125.052 248.5C124.835 249.375 124.632 250.277 124.442 251.179C119.225 275.067 118.845 306.718 125.269 325.549Z" fill="white"/>
<g opacity="0.25">
<path d="M125.269 325.549C125.269 325.549 148.05 345.831 178.718 345.831C191.864 345.831 202.597 344.171 210.579 342.264C229.579 337.729 244.432 323.145 248.172 304.627C248.267 304.157 248.362 303.674 248.443 303.203C248.443 303.203 232.953 335.442 188.435 330.319C146.979 325.549 139.702 308.169 138.374 295.597C137.059 283.039 146.586 252.996 141.653 247.938C138.387 244.58 132.045 245.612 125.038 248.526C124.822 249.402 124.618 250.304 124.429 251.205C119.225 275.068 118.845 306.718 125.269 325.549Z" fill="#2F2B3B"/>
</g>
<g opacity="0.25">
<path d="M214.293 341.309C214.089 341.361 213.9 341.414 213.696 341.466C213.642 341.479 213.588 341.492 213.547 341.505C205.457 343.674 193.897 345.765 179.315 345.831H178.718C148.05 345.831 125.269 325.549 125.269 325.549C122.22 316.597 120.702 304.758 120.512 292.239C120.295 278.4 121.705 263.724 124.429 251.192C124.632 250.29 124.835 249.388 125.039 248.513C132.045 245.599 138.387 244.579 141.654 247.925C146.586 252.982 137.046 283.026 138.374 295.584C138.591 297.701 138.984 299.949 139.688 302.262C143.131 313.644 153.972 326.333 188.449 330.306C190.414 330.528 192.325 330.685 194.181 330.776L214.293 341.309Z" fill="#371A45"/>
</g>
<path d="M124.429 248.278C171.197 268.089 229.972 253.596 236.843 242.083C234.472 236.856 231.843 231.603 229.024 226.467C229.024 226.467 216.136 188.818 166.345 188.818C116.555 188.818 130.419 232.191 130.419 232.191C128.034 237.418 126.014 241.038 124.429 248.278Z" fill="#777782"/>
<path d="M124.429 248.278C171.197 268.089 229.972 253.596 236.843 242.083C234.472 236.856 231.843 231.603 229.024 226.467C229.024 226.467 216.136 188.818 166.345 188.818C116.555 188.818 130.419 232.191 130.419 232.191C128.034 237.418 126.014 241.038 124.429 248.278Z" fill="#2F2B3B"/>
<g opacity="0.25">
<path d="M225.08 218.613C195.672 234.164 155.639 231.733 129.186 226.428C127.424 214.627 127.952 188.805 166.359 188.805C201.499 188.805 218.263 207.584 225.08 218.613Z" fill="#2F2B3B"/>
</g>
<path d="M131.544 232.661C122.979 258.863 119.252 298.433 127.559 324.817C127.993 326.046 127.288 327.392 126.001 327.784C124.727 328.176 123.372 327.496 122.965 326.268C120.39 318.427 119.211 310.403 118.561 302.393C117.3 281.471 118.29 259.947 125.567 240.032C126.204 238.424 127.139 235.968 127.966 234.439C128.413 233.524 128.86 232.609 129.321 231.707C129.619 231.132 130.338 230.897 130.934 231.172C131.517 231.446 131.76 232.099 131.544 232.661Z" fill="#2F2B3B"/>
<path d="M232.005 332.776C252.089 309.723 248.674 280.02 238.903 253.4C235.637 244.501 232.073 235.706 229.037 226.467C229.837 227.408 230.569 228.388 231.314 229.368C239.283 240.28 244.555 252.721 248.579 265.449C255.464 288.083 254.244 318.414 232.005 332.776Z" fill="#2F2B3B"/>
<path d="M210.593 393.281C217.409 395.894 219.808 405.761 214.496 410.923C212.517 412.857 209.753 414.229 206.812 413.732C205.551 413.497 204.725 412.321 204.969 411.106C205.429 409.145 207.367 409.328 209.021 408.466C215.499 405.682 215.187 397.75 210.593 393.281Z" fill="#2F2B3B"/>
<path d="M225.69 392.81C231.016 395.933 234.065 404.676 230.758 410.06C229.403 412.321 226.747 414.137 223.847 413.954C222.518 413.863 221.529 412.752 221.624 411.471C221.692 410.334 222.6 409.589 223.63 409.302C224.768 408.897 225.744 408.283 226.598 407.329C230.04 403.761 228.59 396.495 225.69 392.81Z" fill="#2F2B3B"/>
<path d="M120.513 292.238C119.713 308.325 119.523 359.121 120.675 385.453C121.014 393.111 120.16 397.475 121.746 401.866C124.849 410.387 133.224 412.242 157.686 411.537C170.723 411.158 174.653 406.061 175.778 401.736C177.594 394.731 173.718 387.844 173.718 387.844C173.718 387.844 178.664 345.7 179.505 345.504C180.833 345.19 196.025 346.026 214.334 341.335L120.513 292.238Z" fill="white"/>
<path d="M214.306 341.322C204.535 343.831 195.645 344.759 189.275 345.125C183.719 345.451 180.087 345.347 179.464 345.491C178.623 345.687 173.69 387.831 173.69 387.831C173.69 387.831 177.566 394.705 175.75 401.722C174.626 406.048 170.709 411.145 157.658 411.524C133.197 412.229 124.822 410.387 121.718 401.853C120.133 397.462 120.986 393.098 120.648 385.44C119.848 367.236 119.699 337.349 119.943 315.316C120.051 305.476 120.241 297.191 120.485 292.225L214.306 341.322Z" fill="white"/>
<g opacity="0.25">
<path d="M214.306 341.322C214.103 341.374 213.899 341.426 213.696 341.479C213.642 341.492 213.588 341.505 213.547 341.518C204.074 343.883 195.482 344.772 189.275 345.138C183.719 345.451 180.087 345.347 179.464 345.504C179.423 345.517 179.369 345.634 179.301 345.844H178.705C148.036 345.844 125.255 325.562 125.255 325.562C122.206 316.61 120.688 304.771 120.499 292.251L155.382 274.832C158.824 286.214 141.816 326.437 194.154 330.789L214.306 341.322Z" fill="#2F2B3B"/>
</g>
<path d="M189.289 345.125C183.733 345.452 180.101 345.347 179.477 345.491C178.637 345.687 173.704 387.832 173.704 387.832C173.704 387.832 177.58 394.705 175.764 401.723C174.639 406.048 170.723 411.145 157.672 411.524C133.211 412.23 124.835 410.387 121.732 401.854C120.146 397.463 121 393.098 120.661 385.44C119.862 367.236 119.713 337.35 119.957 315.317C124.849 321.524 141.342 338.016 181.686 343.269C184.559 343.648 187.08 344.276 189.289 345.125Z" fill="#777782"/>
<path d="M189.289 345.125C183.733 345.439 180.101 345.334 179.477 345.491C179.274 345.543 178.813 348.144 178.244 352.038C176.496 363.917 173.704 387.844 173.704 387.844C173.704 387.844 177.58 394.718 175.764 401.736C174.639 406.061 170.723 411.158 157.672 411.537C133.211 412.243 124.835 410.4 121.732 401.867C120.133 397.489 121 393.111 120.661 385.453C120.106 372.646 119.862 354.05 119.848 336.474C119.848 329.077 119.889 321.864 119.957 315.33C124.849 321.537 141.342 338.029 181.686 343.282C184.559 343.635 187.08 344.276 189.289 345.125Z" fill="#2F2B3B"/>
<g opacity="0.25">
<path d="M189.289 345.125C183.733 345.439 180.101 345.334 179.477 345.491C179.274 345.543 178.813 348.144 178.244 352.038C145.489 354.796 128.074 344.263 119.862 336.461C119.862 329.065 119.902 321.851 119.97 315.317C124.862 321.524 141.355 338.016 181.7 343.269C184.559 343.635 187.08 344.276 189.289 345.125Z" fill="#2F2B3B"/>
</g>
<g opacity="0.25">
<path d="M121.746 401.866C124.836 410.387 133.224 412.242 157.686 411.523C170.723 411.145 174.653 406.061 175.778 401.722C176.496 398.978 176.333 396.247 175.859 393.947C175.832 394.065 175.805 394.195 175.778 394.313C174.653 398.638 170.723 403.735 157.686 404.114C133.224 404.833 124.849 402.977 121.746 394.457C121.055 392.549 120.824 390.641 120.756 388.471C120.756 388.471 120.756 388.471 120.743 388.471C120.811 394.326 120.377 398.09 121.746 401.866Z" fill="#2F2B3B"/>
</g>
<path d="M122.911 292.343C121.894 323.864 122.043 355.58 123.128 387.087C123.48 393.007 121.827 400.116 126.258 404.807C128.372 406.99 131.95 408.022 135.65 408.584C139.377 409.133 143.28 409.29 147.196 409.342C151.031 409.368 155.111 409.316 158.946 409.159C164.909 408.793 171.78 407.251 173.392 401.24C174.395 397.345 173.514 393.124 171.82 389.478C171.495 388.864 171.17 388.276 171.278 387.597C172.647 376.306 174.49 360.572 176.17 349.464C176.441 347.909 176.591 346.484 177.078 344.916C177.16 344.668 177.322 344.341 177.539 344.08C177.824 343.688 178.501 343.309 178.908 343.244L179.125 343.204L179.342 343.178C181.117 343.008 183.041 343.048 184.749 342.917C194.642 342.773 204.372 342.682 214.292 341.349C205.009 344.929 194.94 347.36 184.912 347.778C183.529 347.778 181.307 347.765 180.033 347.804C180.006 347.804 179.951 347.804 179.924 347.804L179.979 347.791C180.697 347.648 181.402 347.112 181.632 346.471C179.369 358.847 177.702 375.483 176.076 388.119L175.791 386.747C176.089 387.27 176.279 387.74 176.523 388.263C178.84 393.673 179.721 400.246 176.726 405.617C172.633 412.557 163.635 413.837 156.154 413.916C149.026 414.046 142.033 414.203 134.877 413.197C129.443 412.465 123.372 410.322 120.621 405.238C117.382 399.658 118.52 393.216 118.276 387.218C117.626 370.883 117.436 354.574 117.409 338.278C117.422 322.87 117.436 307.568 118.059 292.147C118.33 289.09 122.965 289.207 122.911 292.343Z" fill="#2F2B3B"/>
<path d="M129.579 388.119C131.991 385.78 135.325 384.447 138.577 383.558C148.402 381.036 159.732 382.591 167.755 388.798C161.345 387.243 155.179 386.041 148.646 385.91C142.196 385.806 135.813 386.133 129.579 388.119Z" fill="#2F2B3B"/>
<path d="M160.233 392.589C163.323 397.136 164.922 403.082 162.673 408.362C161.914 410.217 160.667 411.89 159.217 413.314L156.141 409.721C157.428 408.924 158.594 407.957 159.474 406.728C162.415 402.703 161.954 397.097 160.233 392.589Z" fill="#2F2B3B"/>
<path d="M142.467 393.777C144.527 399.096 145.8 405.369 143.036 410.727C142.575 411.563 142.006 412.36 141.315 413.092L138.089 409.629C139.092 409.002 140 408.074 140.678 406.898C142.86 403.017 142.982 398.155 142.467 393.777Z" fill="#2F2B3B"/>
<path d="M144.906 216.705C103.206 225.827 95.441 253.688 95.441 253.688C95.441 253.688 85.8733 266.403 99.1001 283.182C114.387 302.589 128.82 272.78 128.82 272.78L156.48 223.318L144.906 216.705Z" fill="#2F2B3B"/>
<g opacity="0.25">
<path d="M156.466 223.318L152.847 229.773C141.315 228.806 130.703 226.937 122.152 224.873C128.291 221.58 135.785 218.692 144.892 216.705L156.466 223.318Z" fill="#2F2B3B"/>
</g>
<path d="M109.982 292.082C105.402 292.082 101.092 289.573 97.1756 284.594C84.1385 268.037 91.6463 255.06 93.2319 252.695C94.3974 249.036 103.952 223.292 144.377 214.445C145.678 214.157 146.966 214.941 147.264 216.196C147.562 217.45 146.749 218.692 145.448 218.979C124.7 223.527 112.842 232.884 106.567 239.927C99.764 247.559 97.8125 254.237 97.7854 254.302C97.7041 254.577 97.5821 254.838 97.4059 255.06C97.0671 255.517 89.1256 266.678 101.024 281.784C104.223 285.835 107.502 287.73 110.782 287.39C117.937 286.659 124.646 275.891 126.638 271.8C127.207 270.637 128.643 270.128 129.85 270.676C131.056 271.225 131.584 272.61 131.015 273.774C130.676 274.466 122.626 290.853 111.31 292.017C110.85 292.056 110.416 292.082 109.982 292.082Z" fill="#2F2B3B"/>
<path d="M143.239 221.083C153.498 232.622 180.778 300.34 119.252 317.146C119.252 317.146 113.723 308.639 119.13 300.837C125.825 291.18 152.251 278.87 135.772 238.842C133.549 233.445 128.928 224.506 123.751 224.049C123.751 224.049 122.721 217.058 130.703 217.058C138.672 217.058 143.239 221.083 143.239 221.083Z" fill="#52BF2E"/>
<path d="M119.252 317.146C119.252 317.146 113.723 308.639 119.13 300.837C125.825 291.18 152.251 278.87 135.785 238.842C134.783 236.398 133.292 233.249 131.476 230.465C129.28 227.094 126.597 224.297 123.765 224.049C123.765 224.049 122.735 217.058 130.717 217.058C138.699 217.058 143.253 221.07 143.253 221.07C144.73 222.729 146.559 225.565 148.43 229.237C159.515 251.087 171.902 302.758 119.252 317.146Z" fill="#52BF2E"/>
<path d="M157.604 277.066C155.233 294.12 145.042 310.102 119.252 317.146C119.252 317.146 113.723 308.639 119.13 300.837C123.534 294.486 136.45 286.998 140.122 271.238C142.033 263.031 141.423 252.564 135.785 238.842C134.783 236.398 133.292 233.249 131.476 230.465C129.28 227.094 126.597 224.297 123.765 224.049C123.765 224.049 122.735 217.058 130.717 217.058C138.699 217.058 143.253 221.07 143.253 221.07C144.73 222.729 146.559 225.565 148.43 229.237C154.081 240.384 160.084 259.294 157.604 277.066Z" fill="#52BF2E"/>
<path d="M157.604 277.067C155.233 294.121 145.042 310.103 119.252 317.147C119.252 317.147 113.723 308.639 119.13 300.838C123.534 294.487 136.45 286.999 140.122 271.239C146.546 271.761 153.078 273.342 157.604 277.067Z" fill="#469B19"/>
<path d="M148.416 229.251C142.087 225.369 134.85 228.519 131.462 230.479C129.267 227.107 126.584 224.311 123.751 224.063C123.751 224.063 122.721 217.071 130.703 217.071C138.686 217.071 143.239 221.083 143.239 221.083C144.716 222.743 146.546 225.565 148.416 229.251Z" fill="#469B19"/>
<path d="M119.252 319.276C118.507 319.276 117.788 318.911 117.382 318.27C117.124 317.878 111.161 308.495 117.287 299.648C118.696 297.623 120.756 295.61 123.155 293.284C132.452 284.28 146.492 270.663 133.712 239.614C130.5 231.812 126.421 226.415 123.548 226.167C122.532 226.075 121.705 225.317 121.556 224.337C121.502 223.932 121.054 220.364 123.507 217.646C125.134 215.83 127.559 214.915 130.69 214.915C139.431 214.915 144.513 219.306 144.716 219.489C144.784 219.541 144.852 219.606 144.906 219.672C151.763 227.395 166.156 259.477 157.862 285.953C152.671 302.523 139.878 313.696 119.835 319.185C119.659 319.25 119.455 319.276 119.252 319.276ZM125.987 222.416C131.517 224.546 135.704 232.897 137.832 238.058C151.669 271.696 135.786 287.103 126.299 296.303C124.063 298.472 122.139 300.341 120.973 302.027C117.612 306.875 119.279 312.141 120.39 314.598C137.9 309.384 149.08 299.348 153.661 284.738C161.48 259.725 147.386 229.185 141.681 222.586C141.044 222.089 137.087 219.188 130.704 219.188C128.901 219.188 127.6 219.606 126.855 220.456C126.313 221.044 126.082 221.789 125.987 222.416Z" fill="#2F2B3B"/>
<path d="M153.661 288.37C149.473 290.984 145.326 291.755 138.509 291.441C137.181 293.101 128.847 302.588 114.522 303.503C109.034 303.856 100.767 302.602 95.1022 296.42C88.6649 289.39 85.7919 280.033 87.1335 269.853C88.7191 257.791 96.227 244.553 110.701 232.609L105.551 260.117C107.407 258.445 114.034 253.374 120.228 249.545C126.99 245.35 128.142 241.116 135.433 240.424C137.317 240.241 138.387 247.324 140.149 247.48C147.074 248.082 153.39 250.172 156.479 253.23C158.838 255.557 160.328 258.34 161.182 261.32C164.231 272.048 158.702 285.234 153.661 288.37Z" fill="#2F2B3B"/>
<g opacity="0.25">
<path d="M153.661 288.371C149.473 290.984 145.326 291.755 138.509 291.442C137.181 293.101 128.847 302.589 114.522 303.503C109.034 303.856 100.767 302.602 95.1022 296.42C88.6649 289.39 85.7919 280.033 87.1335 269.853C87.9467 273.643 89.2206 277.642 91.023 278.177C94.9937 279.354 98.6663 271.8 98.8832 271.356C98.707 272.035 94.2077 289.769 108.288 293.964C120.187 297.505 132.153 292.513 129.714 284.293C129.714 284.293 138.957 286.724 146.112 284.986C155.273 282.751 160.938 270.18 161.168 261.32C164.231 272.049 158.702 285.234 153.661 288.371Z" fill="#2F2B3B"/>
</g>
<path d="M105.537 260.118C108.492 256.093 112.232 252.786 116.176 249.715C118.086 248.239 120.092 247.023 121.908 245.455C123.86 243.861 125.472 242.084 127.668 240.555C129.809 239.052 132.506 238.163 135.135 237.902C139.39 237.745 139.77 242.802 141.477 245.351C141.328 245.168 140.84 244.906 140.502 244.893C146.261 245.351 153.796 246.827 158.539 251.297C165.614 258.157 166.223 268.899 163.527 277.707C162.104 282.15 160.057 286.711 156.29 289.887C151.343 293.716 144.391 294.382 138.374 293.768C138.36 293.768 140.407 292.866 140.393 292.866C127.885 308.025 101.038 312.011 89.7762 293.441C82.2006 281.954 83.2305 266.965 89.1799 255.086C93.774 245.664 100.97 237.575 109.101 230.845C111.581 228.911 114.604 232.309 112.246 234.374C106.472 239.156 101.282 244.567 97.1756 250.735C93.1913 256.772 90.2234 263.646 89.4238 270.755C88.2855 280.033 91.2534 289.834 98.3411 296.316C101.756 299.283 106.405 300.89 111.161 301.178C120.797 301.7 130.487 297.179 136.544 290.03C137.046 289.403 137.818 289.09 138.577 289.129C140.976 289.142 143.334 289.037 145.489 288.658C148.47 288.07 151.519 286.999 153.512 284.725C159.054 277.577 161.196 265.397 156.263 257.596C153.01 252.225 145.882 250.865 139.878 250.094C136.151 249.572 135.88 245.194 134.362 242.685C134.295 242.554 134.2 242.489 134.376 242.646C134.471 242.711 134.688 242.868 135.081 242.946C135.23 242.972 135.528 242.998 135.623 242.972C135.298 243.012 134.959 243.038 134.647 243.077C130.487 243.587 128.359 246.448 124.971 249.062C123.927 249.846 122.843 250.617 121.691 251.258C116.392 254.263 111.134 257.282 105.537 260.118Z" fill="#2F2B3B"/>
<path d="M128.969 250.748C132.912 249.14 138.74 247.167 142.819 245.717L143.659 249.715C139.323 249.99 133.224 250.29 128.969 250.748Z" fill="#2F2B3B"/>
<path d="M210.823 209.675C210.823 209.675 236.843 239.522 248.43 277.563C248.43 277.563 241.898 223.448 220.716 206.486C204.711 193.653 210.823 209.675 210.823 209.675Z" fill="#52BF2E"/>
<path d="M248.43 277.55C241.099 253.518 228.021 232.753 219.388 220.73C214.347 213.713 210.823 209.675 210.823 209.675C210.823 209.675 204.711 193.653 220.73 206.486C223.915 209.034 226.76 212.419 229.308 216.339C243.714 238.49 248.43 277.55 248.43 277.55Z" fill="#52BF2E"/>
<path d="M229.308 216.339C225.134 215.791 221.191 219.005 219.388 220.73C214.347 213.713 210.823 209.675 210.823 209.675C210.823 209.675 204.711 193.653 220.73 206.486C223.901 209.034 226.76 212.419 229.308 216.339Z" fill="#469B19"/>
<path d="M248.43 279.34C247.631 279.34 246.899 278.831 246.669 278.06C235.325 240.842 209.671 211.112 209.414 210.825C209.278 210.668 209.17 210.485 209.089 210.289C208.411 208.499 206.419 202.487 209.536 200.37C211.935 198.737 215.756 200.2 221.895 205.114C243.389 222.338 249.989 275.106 250.26 277.354C250.368 278.269 249.731 279.118 248.796 279.301C248.674 279.327 248.552 279.34 248.43 279.34ZM212.45 208.786C214.537 211.243 231.002 231.08 242.982 257.896C239.12 240.907 231.829 217.685 219.551 207.845C213.859 203.284 211.975 203.245 211.677 203.284C211.271 203.925 211.65 206.538 212.45 208.786Z" fill="#2F2B3B"/>
<path d="M211.948 43.3972C215.905 30.7342 234.987 12.4912 256.941 18.8292C280.156 25.52 291.309 47.4352 280.264 68.0958C271.699 84.1303 255.22 88.4427 243.701 88.678C243.701 88.678 230.487 87.5672 221.8 78.3673C208.79 64.5543 211.948 43.3972 211.948 43.3972Z" fill="#2F2B3B"/>
<path d="M280.264 68.0954C272.729 82.1958 259.082 87.227 248.078 88.4032C246.56 88.56 245.097 88.6645 243.714 88.6776C243.714 88.6776 230.501 87.5668 221.814 78.3669C208.777 64.567 211.948 43.4098 211.948 43.4098C215.905 30.7469 234.987 12.5039 256.955 18.8288C269.843 22.5401 279.004 30.9429 282.717 41.2144C285.712 49.4603 285.184 58.9085 280.264 68.0954Z" fill="#2F2B3B"/>
<g opacity="0.25">
<path d="M280.264 68.0954C272.729 82.1958 259.082 87.227 248.078 88.4032C246.235 87.4361 244.948 85.9725 245.666 83.7379C247.793 77.1254 261.481 82.7447 271.469 65.2858C279.248 51.695 272.038 42.103 273.813 41.7633C275.074 41.528 279.966 43.3053 282.731 41.2275C285.712 49.4604 285.184 58.9086 280.264 68.0954Z" fill="#2F2B3B"/>
</g>
<path d="M210.796 43.07C213.141 29.7537 227.939 18.1623 241.37 15.6532C252.374 13.5231 263.852 17.3129 272.566 23.8469C281.362 30.4071 287.067 40.8354 286.972 51.6296C287.067 65.8346 278.204 79.9873 264.733 85.894C258.12 88.9128 250.842 90.1412 243.755 89.8406C242.264 89.7491 242.223 87.6582 243.701 87.5145C256.887 86.3906 269.815 80.4447 276.659 69.3368C285.875 55.2886 283.327 37.8297 269.477 27.6497C251.412 14.5686 231.992 19.1555 218.48 35.765C216.434 38.2348 214.618 40.8876 213.114 43.7365C212.531 44.9257 210.593 44.3637 210.796 43.07Z" fill="#2F2B3B"/>
<path d="M223.034 54.6095C223.887 48.4936 231.07 33.3347 248.037 35.9483C262.362 38.1568 269.476 50.689 262.47 64.6457C256.751 76.0411 242.942 76.407 237.968 75.1655C229.552 73.0746 221.841 63.156 223.034 54.6095Z" fill="white"/>
<path d="M262.457 64.6327C261.738 66.0571 260.912 67.2985 259.977 68.3963C253.445 76.1064 242.318 76.2371 237.955 75.1655C229.552 73.0877 221.828 63.169 223.034 54.6095C223.888 48.4936 231.07 33.3347 248.037 35.9483C253.445 36.7846 257.835 39.0846 260.803 42.3908H260.817C265.709 47.8271 266.821 55.9555 262.457 64.6327Z" fill="white"/>
<g opacity="0.25">
<path d="M259.977 68.3963C253.445 76.1064 242.318 76.2371 237.955 75.1655C229.552 73.0877 221.828 63.169 223.034 54.6095C223.888 48.4936 231.07 33.3347 248.037 35.9483C253.445 36.7846 257.835 39.0846 260.803 42.3908C245.137 33.1648 225.256 50.4408 237.968 65.5605C245.639 74.682 254.488 71.7809 259.977 68.3963Z" fill="#2F2B3B"/>
</g>
<path d="M242.644 77.9748C240.584 77.9748 238.754 77.7527 237.358 77.4129C227.438 74.9561 219.321 63.7306 220.635 54.2955C221.137 50.7018 223.982 42.5604 231.124 37.4508C236.057 33.9224 241.871 32.6417 248.403 33.648C256.101 34.8372 262.091 38.7314 265.262 44.599C268.582 50.741 268.352 58.2159 264.625 65.6517C259.787 75.2959 249.786 77.9748 242.644 77.9748ZM225.433 54.9097C224.443 61.9665 231.07 71.0357 238.564 72.8914C241.573 73.6362 254.922 74.3288 260.288 63.613C263.338 57.5364 263.595 51.5381 260.993 46.7422C258.54 42.2075 253.797 39.1888 247.644 38.2349C242.44 37.4377 237.846 38.4178 233.997 41.1752C228.577 45.0695 225.907 51.5251 225.433 54.9097Z" fill="#2F2B3B"/>
<path d="M211.935 56.1123C214.117 65.848 219.307 74.6559 226.72 81.5427C227.75 82.5882 228.929 83.4638 229.973 84.5223C229.295 84.2086 228.617 83.8819 227.953 83.5291C217.952 78.328 210.945 67.1679 211.935 56.1123Z" fill="#2F2B3B"/>
<path d="M166.793 220.495C112.3 225.761 78.5822 204.526 71.8332 165.191C65.9381 130.809 78.9616 88.5206 95.1834 63.7175C101.214 54.4914 113.479 40.1427 150.273 29.9757C180.71 22.4616 171.942 6.0089 175.385 3.63051C179.491 0.781675 202.326 2.71575 200.7 23.4809C213.52 23.4678 214.821 12.935 222.342 15.9276C227.004 17.7832 232.859 27.4405 226.869 41.0836C235.38 45.2392 240.827 50.1397 240.827 50.1397C265.533 68.0561 269.355 95.4598 274.437 116.225C278.041 130.992 286.43 145.981 280.318 167.935C272.553 195.836 245.232 210.158 201.025 216.47" fill="white"/>
<path d="M280.305 167.935C278.055 175.998 274.179 182.937 268.731 188.857C255.328 203.441 232.439 211.975 201.011 216.47L166.793 220.495C142.25 222.86 121.922 219.868 106.364 212.249C87.391 202.971 75.5329 186.806 71.8197 165.191C65.911 130.809 78.9481 88.5206 95.1699 63.7175C101.201 54.4914 113.465 40.1427 150.259 29.9757C180.697 22.4616 171.929 6.0089 175.371 3.63051C179.477 0.781675 202.312 2.71575 200.7 23.4809C213.52 23.4678 214.821 12.935 222.342 15.9276C227.004 17.7832 232.859 27.4405 226.869 41.0836C235.393 45.2392 240.814 50.1397 240.814 50.1397C265.519 68.0561 269.341 95.4598 274.423 116.225C278.041 130.992 286.417 145.981 280.305 167.935Z" fill="white"/>
<g opacity="0.25">
<path d="M268.731 188.857C255.328 203.441 232.439 211.975 201.011 216.47C201.011 216.47 191.755 218.587 184.966 219.293C176.536 220.155 166.793 220.495 166.793 220.495C142.25 222.86 121.922 219.868 106.364 212.249C104.331 210.668 143.226 221.083 204.02 211.125C239.133 205.362 268.718 188.635 268.731 188.857Z" fill="#2F2B3B"/>
</g>
<path d="M138.333 89.6314C137.479 88.2331 144.554 74.198 154.42 77.2951C157.049 78.1184 158.743 82.9144 156.669 85.3973C153.037 89.749 139.187 91.0297 138.333 89.6314Z" fill="#2F2B3B"/>
<path d="M252.103 84.7177C252.834 83.5677 246.329 70.6564 237.06 74.0411C234.268 75.0604 233.021 79.3206 236.138 81.6467C242.128 86.116 251.371 85.8677 252.103 84.7177Z" fill="#2F2B3B"/>
<path d="M168.744 172.195C171.346 171.581 190.847 167.883 187.92 138.702C185.521 114.787 174.368 111.376 159.041 110.2C140.163 108.763 119.374 124 113.736 137.369C102.23 164.655 122.911 179.971 138.997 179.552C149.026 179.291 149.297 176.808 168.744 172.195Z" fill="#2F2B3B"/>
<path d="M241.627 161.205C235.149 160.369 223.345 154.305 220.974 134.742C218.548 114.8 225.988 108.293 236.748 107.09C246.696 105.98 258.865 108.593 269.504 121.674C276.198 129.907 279.071 145.079 277.811 152.28C276.713 158.513 270.805 162.499 260.857 161.845C251.642 161.231 245.896 161.754 241.627 161.205Z" fill="#2F2B3B"/>
<path d="M225.704 43.1224C220.649 40.156 215.052 37.5946 209.265 36.327C207.788 36.0265 208.113 33.9094 209.604 34.0271C214.415 34.4452 219.036 35.6998 223.549 37.281C225.053 37.8168 226.503 38.3787 228.035 39.0452C229.254 39.581 229.783 40.9662 229.227 42.1423C228.617 43.423 226.923 43.8934 225.704 43.1224Z" fill="#2F2B3B"/>
<path d="M189.302 166.537C191.661 171.32 194.981 174.064 200.442 174.482C206.365 174.927 209.78 170.209 211.65 166.746C212.788 169.543 216.23 171.542 219.551 171.006C226.272 169.922 227.248 160.996 227.248 160.996C227.248 160.996 221.028 152.071 207.435 154.109C193.829 156.161 189.302 166.537 189.302 166.537Z" fill="white"/>
<path d="M189.302 166.537C191.661 171.32 194.981 174.064 200.442 174.482C206.365 174.927 209.78 170.209 211.65 166.746C212.788 169.543 216.23 171.542 219.551 171.006C226.272 169.922 227.248 160.996 227.248 160.996C227.248 160.996 221.028 152.071 207.435 154.109C193.829 156.161 189.302 166.537 189.302 166.537Z" fill="white"/>
<g opacity="0.25">
<path d="M203.153 170.836C206.365 170.13 209.536 163.936 208.574 161.087C207.855 158.957 203.885 157.742 204.074 159.493C205.403 171.698 192.731 167.556 192.731 167.556C192.731 167.556 198.491 171.842 203.153 170.836Z" fill="#2F2B3B"/>
</g>
<g opacity="0.25">
<path d="M219.849 167.53C215.797 168.876 213.466 162.525 212.775 159.597C212.26 157.415 213.954 156.54 214.55 158.199C218.67 169.83 225.134 161.322 225.134 161.322C225.134 161.322 223.752 166.236 219.849 167.53Z" fill="#2F2B3B"/>
</g>
<path d="M190.129 166.171C192.393 170.065 195.93 172.77 200.605 172.81C205.023 172.875 208.167 169.66 210.01 165.936L211.786 162.551L213.385 166.119C214.604 168.641 218.047 170.144 220.798 168.994C222.207 168.445 223.4 167.256 224.321 165.805C225.243 164.341 225.934 162.577 226.368 160.865C226.625 159.859 228.197 160.068 228.157 161.114C227.94 165.269 226.273 169.817 222.221 171.869C217.749 174.208 211.772 172.104 209.943 167.425L213.317 167.595C210.973 172.091 206.243 177.109 200.361 176.181C197.705 175.933 194.927 174.992 192.826 173.228C190.726 171.49 189.398 169.203 188.517 166.929C188.341 166.472 188.585 165.975 189.045 165.805C189.438 165.635 189.899 165.805 190.129 166.171Z" fill="#2F2B3B"/>
<path d="M211.095 158.395C212.87 158.081 211.989 162.903 213.656 166.497C214.306 167.882 208.032 169.738 209.143 167.281C211.61 161.819 208.587 158.839 211.095 158.395Z" fill="#2F2B3B"/>
<path d="M199.372 152.684C199.629 158.787 208.885 162.302 210.864 162.263C212.856 162.224 222.153 157.519 221.258 152.109C220.689 148.633 214.225 147.77 211.243 147.836C207.395 147.901 199.223 149.142 199.372 152.684Z" fill="#2F2B3B"/>
<g opacity="0.5">
<path d="M205.931 151.861C205.999 153.638 209.129 154.292 211.42 154.187C213.71 154.083 216.786 153.142 216.718 151.377C216.691 150.463 211.298 150.711 211.298 150.711C211.298 150.711 205.904 150.946 205.931 151.861Z" fill="white"/>
</g>
<path d="M166.793 220.495C143.971 226.519 116.379 222.521 96.742 209.622C83.0137 200.645 73.6493 186.165 70.058 170.68C62.3062 135.801 73.0259 94.2575 91.4838 63.8873C102.922 44.5597 124.876 34.3927 146.071 28.2115L148.999 27.3883C155.111 25.8724 161.819 23.7031 166.4 19.5605C169.666 16.7117 171.238 12.752 171.468 8.54412C171.712 4.93733 171.671 1.38282 176.415 0.415784C181.483 -0.616593 186.592 0.363515 191.213 2.36293C199.982 6.20494 204.047 14.7776 203.099 23.6508L200.686 21.1548C204.698 21.2071 208.167 19.8349 211.298 17.2997C213.249 15.8492 214.93 14.1634 217.599 13.3793C223.427 11.7197 228.482 16.8423 230.27 21.6122C232.967 28.1985 231.87 35.7518 229.091 41.9983C229.091 42.0114 227.953 39.0188 227.953 39.0188C232.886 41.358 238.903 45.3438 242.264 48.2841C263.5 63.4561 270.479 86.861 275.561 110.58C278.434 124.471 284.953 137.63 284.872 152.084C284.587 188.818 257.578 207.545 222.844 214.105C215.648 215.451 208.33 216.274 200.998 216.483C223.684 210.38 248.2 205.114 265.303 188.661C275.168 179.082 280.128 165.492 280.047 152.11C280.088 138.153 273.596 125.15 270.845 111.586C264.557 83.411 258.635 64.0834 232.778 47.1341C230.528 45.6835 228.17 44.3506 225.758 43.1614C224.619 42.5995 224.145 41.2927 224.619 40.1819C227.614 33.4388 228.482 24.4087 222.763 18.9594C221.76 18.0446 220.201 17.4827 218.927 17.8486C217.681 18.1622 216.068 19.5605 214.293 20.9457C210.674 23.9644 205.579 25.9377 200.673 25.8201C199.263 25.8462 198.139 24.657 198.26 23.311C198.504 19.8088 197.989 16.3327 196.39 13.4577C193.206 7.59015 185.467 4.64984 178.827 5.2771C178.231 5.31631 177.404 5.5254 176.97 5.73449C176.93 5.74755 176.943 5.76062 176.93 5.76062C177.024 5.69528 177.092 5.62994 177.146 5.5646C177.255 5.44699 177.255 5.39472 177.255 5.43392C177.011 6.47937 177.011 7.69469 176.902 8.97536C176.387 22.1872 165.261 28.7343 153.444 32.0536C131.693 37.9734 108.397 47.2648 96.6742 66.9714C89.6543 78.223 84.4367 90.4547 80.5337 103.026C71.3996 133.135 66.8732 173.842 91.1043 198.384C111.744 218.848 139.323 218.744 166.793 220.495Z" fill="#2F2B3B"/>
<path d="M116.894 52.3613C112.53 39.8291 92.8524 22.1741 71.1149 29.1655C48.1306 36.5621 37.7091 58.8039 49.4181 79.1117C58.5115 94.8717 75.1128 98.6876 86.632 98.57C86.632 98.57 99.8046 97.0541 108.18 87.5928C120.743 73.414 116.894 52.3613 116.894 52.3613Z" fill="#2F2B3B"/>
<path d="M49.4181 79.1247C57.4138 92.9899 71.2098 97.603 82.2548 98.4393C83.7726 98.5569 85.2362 98.6092 86.6321 98.5831C86.6321 98.5831 99.8047 97.0672 108.18 87.6059C120.756 73.414 116.894 52.3613 116.894 52.3613C112.53 39.8291 92.8525 22.1741 71.115 29.1655C58.3625 33.2689 49.4723 41.9461 46.0979 52.3221C43.3739 60.6596 44.2006 70.0816 49.4181 79.1247Z" fill="#2F2B3B"/>
<g opacity="0.25">
<path d="M49.4182 79.1243C57.4139 92.9895 71.2099 97.6026 82.2548 98.4389C84.0572 97.4196 85.304 95.9168 84.518 93.7083C82.1735 87.1612 68.6757 93.1986 58.1321 76.0403C49.9196 62.6978 56.804 52.8837 55.0152 52.6092C53.7548 52.4002 48.9167 54.3342 46.0844 52.3348C43.3739 60.6592 44.2006 70.0812 49.4182 79.1243Z" fill="#2F2B3B"/>
</g>
<path d="M115.742 52.7265C107.353 38.0772 89.3969 25.545 71.6437 31.6086C65.491 33.621 59.7585 36.9403 55.3541 41.5664C44.8648 52.4652 44.526 68.1076 53.0638 80.2479C60.2735 91.1336 73.3919 96.7006 86.6051 97.4062C88.0823 97.4846 88.123 99.6147 86.6323 99.7324C79.5581 100.255 72.24 99.2358 65.5317 96.4261C58.837 93.6426 52.847 88.8989 48.8627 82.9138C38.0481 67.1145 40.3926 46.8851 55.6658 34.6534C64.1494 27.858 75.506 23.7154 86.5781 25.5188C99.0324 27.5836 110.985 35.9602 116.379 46.9243C117.138 48.5317 117.734 50.2305 118.032 51.9817C118.141 52.622 117.694 53.2362 117.03 53.3407C116.501 53.4322 115.986 53.1709 115.742 52.7265Z" fill="#2F2B3B"/>
<path d="M106.174 63.9C105.117 57.8103 97.4468 42.8735 80.5744 46.0099C66.3177 48.6627 59.6365 61.391 67.0901 75.1255C73.175 86.3379 86.9981 86.2856 91.9311 84.9004C100.266 82.5612 107.651 72.4074 106.174 63.9Z" fill="white"/>
<path d="M67.1037 75.1251C67.8626 76.5234 68.7435 77.7518 69.7057 78.8103C76.4953 86.3114 87.608 86.1154 91.9311 84.9C100.266 82.5608 107.651 72.42 106.174 63.8996C105.117 57.823 97.4468 42.8731 80.5744 46.0095C75.1943 47.0157 70.8847 49.4464 68.0252 52.8441H68.0117C63.2956 58.4241 62.4689 66.5786 67.1037 75.1251Z" fill="white"/>
<g opacity="0.25">
<path d="M69.7055 78.798C76.495 86.2991 87.6077 86.1031 91.9308 84.8877C100.265 82.5486 107.651 72.4078 106.174 63.8874C105.117 57.8107 97.4465 42.8609 80.5742 45.9972C75.194 47.0034 70.8845 49.4341 68.025 52.8318C83.3795 43.1353 103.816 59.7971 91.6056 75.2958C84.2468 84.6525 75.3025 82.0128 69.7055 78.798Z" fill="#2F2B3B"/>
</g>
<path d="M86.4696 87.8669C79.409 87.8669 69.909 85.3055 64.9625 76.1971C60.9917 68.879 60.5174 61.4171 63.6344 55.1706C66.6158 49.1985 72.4703 45.1343 80.1272 43.7099C86.6322 42.5076 92.4867 43.6053 97.5281 46.99C104.833 51.8905 107.936 59.9404 108.559 63.508C110.186 72.8909 102.434 84.3646 92.6087 87.122C91.0366 87.5663 88.8954 87.8669 86.4696 87.8669ZM85.0466 47.9047C83.7456 47.9047 82.4175 48.0354 81.0352 48.2837C74.9232 49.4206 70.2749 52.5831 67.971 57.1961C65.5316 62.0705 65.9789 68.0557 69.2314 74.0409C74.9639 84.5868 88.272 83.4891 91.2535 82.6527C98.68 80.5749 105.009 71.2966 103.789 64.279C103.206 60.9075 100.32 54.5302 94.7635 50.8189C91.8769 48.8848 88.6244 47.9047 85.0466 47.9047Z" fill="#2F2B3B"/>
<path d="M117.328 65.0631C118.683 76.0795 112.042 87.4487 102.231 92.9634C101.567 93.3294 100.916 93.6822 100.238 94.0089C101.241 92.9112 102.393 92.0095 103.383 90.9248C110.565 83.8289 115.457 74.8642 117.328 65.0631Z" fill="#2F2B3B"/>
<path d="M245.787 120.669C252.725 120.747 258.214 128.68 258.038 138.389C257.862 148.099 252.089 155.914 245.15 155.835C238.211 155.757 232.723 147.824 232.899 138.115C233.075 128.405 238.848 120.591 245.787 120.669Z" fill="#2F2B3B"/>
<path d="M245.788 124.747C247.875 125.871 248.431 129.242 247.035 132.287C245.639 135.332 242.82 136.887 240.733 135.763C238.646 134.639 238.09 131.268 239.486 128.223C240.896 125.191 243.714 123.636 245.788 124.747Z" fill="white"/>
<path d="M161.141 127.031C153.552 127.109 147.562 135.787 147.752 146.411C147.941 157.035 154.257 165.569 161.846 165.49C169.435 165.412 175.425 156.735 175.235 146.11C175.032 135.486 168.73 126.953 161.141 127.031Z" fill="#2F2B3B"/>
<path d="M161.128 131.488C158.851 132.716 158.241 136.402 159.772 139.721C161.304 143.053 164.38 144.752 166.657 143.524C168.934 142.295 169.543 138.61 168.012 135.291C166.494 131.972 163.404 130.26 161.128 131.488Z" fill="white"/>
</svg>
