<svg width="503" height="509" viewBox="0 0 503 509" fill="none" xmlns="http://www.w3.org/2000/svg">
<path d="M166.565 261.093C171.37 259.916 207.381 252.834 201.975 196.954C197.546 151.158 176.951 144.626 148.647 142.374C113.787 139.621 75.399 168.8 64.9886 194.401C43.7424 246.653 81.9306 275.983 111.635 275.182C130.129 274.681 130.654 269.926 166.565 261.093Z" fill="#2F2B3B"/>
<path d="M336.435 261.093C331.63 259.916 295.619 252.834 301.024 196.954C305.454 151.158 326.049 144.626 354.353 142.374C389.213 139.621 427.601 168.8 438.011 194.401C459.258 246.653 421.069 275.983 391.365 275.182C372.871 274.681 372.346 269.926 336.435 261.093Z" fill="#2F2B3B"/>
<path d="M221.42 258.991C222.121 276.308 247.471 286.318 252.926 286.218C258.382 286.118 283.857 272.729 281.43 257.339C279.878 247.454 262.161 245.027 253.977 245.177C243.417 245.402 221.02 248.93 221.42 258.991Z" fill="#2F2B3B"/>
<path d="M320.894 49.1559C320.894 49.1559 394.092 60.5673 448.472 147.854C448.472 147.854 532.931 78.0848 455.854 18.9257C384.683 -35.6789 320.894 49.1559 320.894 49.1559Z" fill="#2F2B3B"/>
<path d="M176.275 49.1559C176.275 49.1559 103.077 60.5673 48.6974 147.854C48.6974 147.854 -35.762 78.0848 41.315 18.9257C112.486 -35.6789 176.275 49.1559 176.275 49.1559Z" fill="#2F2B3B"/>
<path d="M0.249018 358.265C0.249018 348.38 5.52929 343.325 15.4142 343.325H72.5963C105.679 343.325 127.501 368.35 127.501 402.359C127.501 436.593 105.679 462.068 72.5963 462.068H48.6974V493.525C48.6974 503.159 43.6424 508.465 33.7575 508.465H15.3891C5.50427 508.465 0.223999 503.184 0.223999 493.525V358.265H0.249018ZM62.261 420.727C73.7475 420.727 78.327 412.469 78.327 402.359C78.327 392.249 73.7224 384.666 63.1619 384.666H48.6974V420.727H62.261Z" fill="#2F2B3B"/>
<path d="M163.312 355.512C166.065 347.254 171.345 343.35 180.304 343.35H205.329C214.063 343.35 219.568 347.254 222.321 355.512L267.116 491.247C270.794 501.583 265.739 508.465 254.953 508.465H236.36C227.401 508.465 222.121 504.335 219.368 495.827L215.914 479.761H169.293L165.839 495.827C163.537 504.335 158.032 508.465 149.298 508.465H130.704C119.919 508.465 114.863 501.583 118.542 491.247L163.312 355.512ZM204.903 441.423L199.848 418.45C196.87 407.188 192.966 387.894 192.966 387.894H192.516C192.516 387.894 188.837 407.188 185.859 418.45L180.354 441.423H204.903Z" fill="#2F2B3B"/>
<path d="M265.314 363.295H249.773C245.119 363.295 242.566 360.742 242.566 356.087V350.532C242.566 345.752 245.119 343.325 249.773 343.325H304.253C308.907 343.325 311.46 345.777 311.46 350.532V356.087C311.46 360.742 308.907 363.295 304.253 363.295H288.712V415.897C288.712 420.552 286.16 423.104 281.505 423.104H272.521C267.866 423.104 265.314 420.552 265.314 415.897V363.295Z" fill="#2F2B3B"/>
<path d="M315.139 350.557C315.139 345.777 317.691 343.35 322.471 343.35H331.355C336.135 343.35 338.562 345.802 338.562 350.557V373.755H361.86V350.557C361.86 345.777 364.413 343.35 369.067 343.35H378.051C382.706 343.35 385.259 345.802 385.259 350.557V415.897C385.259 420.552 382.706 423.104 378.051 423.104H369.067C364.413 423.104 361.86 420.552 361.86 415.897V393.6H338.562V415.897C338.562 420.552 336.11 423.104 331.355 423.104H322.471C317.691 423.104 315.139 420.552 315.139 415.897V350.557Z" fill="#2F2B3B"/>
<path d="M281.93 435.917C281.93 431.137 284.483 428.71 289.263 428.71H299.923C304.027 428.71 306.68 430.161 308.582 433.59L321.67 459.215C324.898 464.996 328.427 473.855 328.427 473.855H328.652C328.652 473.855 327.651 464.546 327.651 459.215V435.917C327.651 431.137 330.104 428.71 334.858 428.71H343.742C348.522 428.71 351.074 431.162 351.074 435.917V501.282C351.074 505.937 348.522 508.49 343.742 508.49H333.081C329.077 508.49 326.425 507.038 324.548 503.61L311.335 478.084C308.107 472.429 304.578 463.545 304.578 463.545H304.353C304.353 463.545 305.354 472.754 305.354 478.084V501.282C305.354 505.937 302.901 508.49 298.147 508.49H289.263C284.483 508.49 281.93 505.937 281.93 501.282V435.917Z" fill="#2F2B3B"/>
<path d="M360.259 435.917C360.259 431.137 362.811 428.71 367.591 428.71H389.463C414.988 428.71 431.079 443.35 431.079 468.425C431.079 493.4 414.988 508.49 389.463 508.49H367.591C362.811 508.49 360.259 505.937 360.259 501.282V435.917ZM388.662 488.495C400.199 488.495 406.855 481.613 406.855 468.4C406.855 455.186 399.748 448.655 388.662 448.655H383.657V488.495H388.662Z" fill="#2F2B3B"/>
<path d="M452.025 434.566C453.352 430.562 455.904 428.685 460.233 428.685H472.321C476.525 428.685 479.202 430.562 480.529 434.566L502.175 500.156C503.952 505.161 501.5 508.49 496.294 508.49H487.311C482.981 508.49 480.429 506.488 479.102 502.384L477.426 494.626H454.903L453.226 502.384C452.125 506.488 449.448 508.49 445.243 508.49H436.26C431.054 508.49 428.602 505.161 430.379 500.156L452.025 434.566ZM472.12 476.082L469.668 464.996C468.216 459.566 466.34 450.231 466.34 450.231H466.114C466.114 450.231 464.338 459.541 462.886 464.996L460.233 476.082H472.12Z" fill="#2F2B3B"/>
</svg>
